<svg width="400" height="80" viewBox="0 0 400 80" fill="none" xmlns="http://www.w3.org/2000/svg">
<path d="M97.2273 57V22.0909H109.023C111.761 22.0909 114 22.5852 115.739 23.5739C117.489 24.5511 118.784 25.875 119.625 27.5455C120.466 29.2159 120.886 31.0795 120.886 33.1364C120.886 35.1932 120.466 37.0625 119.625 38.7443C118.795 40.4261 117.511 41.767 115.773 42.767C114.034 43.7557 111.807 44.25 109.091 44.25H100.636V40.5H108.955C110.83 40.5 112.335 40.1761 113.472 39.5284C114.608 38.8807 115.432 38.0057 115.943 36.9034C116.466 35.7898 116.727 34.5341 116.727 33.1364C116.727 31.7386 116.466 30.4886 115.943 29.3864C115.432 28.2841 114.602 27.4205 113.455 26.7955C112.307 26.1591 110.784 25.8409 108.886 25.8409H101.455V57H97.2273ZM125.711 57V30.8182H129.597V34.7727H129.87C130.347 33.4773 131.211 32.4261 132.461 31.6193C133.711 30.8125 135.12 30.4091 136.688 30.4091C136.983 30.4091 137.353 30.4148 137.796 30.4261C138.239 30.4375 138.574 30.4545 138.801 30.4773V34.5682C138.665 34.5341 138.353 34.483 137.864 34.4148C137.387 34.3352 136.881 34.2955 136.347 34.2955C135.074 34.2955 133.938 34.5625 132.938 35.0966C131.949 35.6193 131.165 36.3466 130.586 37.2784C130.017 38.1989 129.733 39.25 129.733 40.4318V57H125.711ZM151.969 57.5455C149.606 57.5455 147.532 56.983 145.748 55.858C143.975 54.733 142.589 53.1591 141.589 51.1364C140.6 49.1136 140.106 46.75 140.106 44.0455C140.106 41.3182 140.6 38.9375 141.589 36.9034C142.589 34.8693 143.975 33.2898 145.748 32.1648C147.532 31.0398 149.606 30.4773 151.969 30.4773C154.333 30.4773 156.401 31.0398 158.174 32.1648C159.958 33.2898 161.344 34.8693 162.333 36.9034C163.333 38.9375 163.833 41.3182 163.833 44.0455C163.833 46.75 163.333 49.1136 162.333 51.1364C161.344 53.1591 159.958 54.733 158.174 55.858C156.401 56.983 154.333 57.5455 151.969 57.5455ZM151.969 53.9318C153.765 53.9318 155.242 53.4716 156.401 52.5511C157.56 51.6307 158.418 50.4205 158.975 48.9205C159.532 47.4205 159.81 45.7955 159.81 44.0455C159.81 42.2955 159.532 40.6648 158.975 39.1534C158.418 37.642 157.56 36.4205 156.401 35.4886C155.242 34.5568 153.765 34.0909 151.969 34.0909C150.174 34.0909 148.697 34.5568 147.538 35.4886C146.379 36.4205 145.521 37.642 144.964 39.1534C144.407 40.6648 144.129 42.2955 144.129 44.0455C144.129 45.7955 144.407 47.4205 144.964 48.9205C145.521 50.4205 146.379 51.6307 147.538 52.5511C148.697 53.4716 150.174 53.9318 151.969 53.9318ZM168.534 30.8182H172.556V58.9091C172.556 60.5227 172.278 61.9205 171.721 63.1023C171.176 64.2841 170.346 65.1989 169.233 65.8466C168.13 66.4943 166.738 66.8182 165.056 66.8182C164.92 66.8182 164.784 66.8182 164.647 66.8182C164.511 66.8182 164.375 66.8182 164.238 66.8182V63.0682C164.375 63.0682 164.5 63.0682 164.613 63.0682C164.727 63.0682 164.852 63.0682 164.988 63.0682C166.216 63.0682 167.113 62.7045 167.681 61.9773C168.25 61.2614 168.534 60.2386 168.534 58.9091V30.8182ZM170.511 26.4545C169.727 26.4545 169.051 26.1875 168.483 25.6534C167.926 25.1193 167.647 24.4773 167.647 23.7273C167.647 22.9773 167.926 22.3352 168.483 21.8011C169.051 21.267 169.727 21 170.511 21C171.295 21 171.966 21.267 172.522 21.8011C173.091 22.3352 173.375 22.9773 173.375 23.7273C173.375 24.4773 173.091 25.1193 172.522 25.6534C171.966 26.1875 171.295 26.4545 170.511 26.4545ZM189.462 57.5455C186.939 57.5455 184.763 56.9886 182.933 55.875C181.115 54.75 179.712 53.1818 178.723 51.1705C177.746 49.1477 177.257 46.7955 177.257 44.1136C177.257 41.4318 177.746 39.0682 178.723 37.0227C179.712 34.9659 181.087 33.3636 182.848 32.2159C184.621 31.0568 186.689 30.4773 189.052 30.4773C190.416 30.4773 191.763 30.7045 193.092 31.1591C194.422 31.6136 195.632 32.3523 196.723 33.375C197.814 34.3864 198.683 35.7273 199.331 37.3977C199.979 39.0682 200.302 41.125 200.302 43.5682V45.2727H180.121V41.7955H196.212C196.212 40.3182 195.916 39 195.325 37.8409C194.746 36.6818 193.916 35.767 192.837 35.0966C191.768 34.4261 190.507 34.0909 189.052 34.0909C187.45 34.0909 186.064 34.4886 184.893 35.2841C183.734 36.0682 182.842 37.0909 182.217 38.3523C181.592 39.6136 181.28 40.9659 181.28 42.4091V44.7273C181.28 46.7045 181.621 48.3807 182.302 49.7557C182.996 51.1193 183.956 52.1591 185.183 52.875C186.41 53.5795 187.837 53.9318 189.462 53.9318C190.518 53.9318 191.473 53.7841 192.325 53.4886C193.189 53.1818 193.933 52.7273 194.558 52.125C195.183 51.5114 195.666 50.75 196.007 49.8409L199.893 50.9318C199.484 52.25 198.797 53.4091 197.831 54.4091C196.865 55.3977 195.672 56.1705 194.251 56.7273C192.831 57.2727 191.234 57.5455 189.462 57.5455ZM215.618 57.5455C213.164 57.5455 211.05 56.9659 209.277 55.8068C207.505 54.6477 206.141 53.0511 205.186 51.017C204.232 48.983 203.755 46.6591 203.755 44.0455C203.755 41.3864 204.243 39.0398 205.22 37.0057C206.209 34.9602 207.584 33.3636 209.345 32.2159C211.118 31.0568 213.186 30.4773 215.55 30.4773C217.391 30.4773 219.05 30.8182 220.527 31.5C222.005 32.1818 223.215 33.1364 224.158 34.3636C225.101 35.5909 225.686 37.0227 225.914 38.6591H221.891C221.584 37.4659 220.902 36.4091 219.845 35.4886C218.8 34.5568 217.391 34.0909 215.618 34.0909C214.05 34.0909 212.675 34.5 211.493 35.3182C210.323 36.125 209.408 37.267 208.749 38.7443C208.101 40.2102 207.777 41.9318 207.777 43.9091C207.777 45.9318 208.095 47.6932 208.732 49.1932C209.38 50.6932 210.289 51.858 211.459 52.6875C212.641 53.517 214.027 53.9318 215.618 53.9318C216.664 53.9318 217.613 53.75 218.465 53.3864C219.317 53.0227 220.039 52.5 220.63 51.8182C221.22 51.1364 221.641 50.3182 221.891 49.3636H225.914C225.686 50.9091 225.124 52.3011 224.226 53.5398C223.34 54.767 222.164 55.7443 220.698 56.4716C219.243 57.1875 217.55 57.5455 215.618 57.5455ZM241.741 30.8182V34.2273H228.173V30.8182H241.741ZM232.127 24.5455H236.15V49.5C236.15 50.6364 236.315 51.4886 236.644 52.0568C236.985 52.6136 237.417 52.9886 237.94 53.1818C238.474 53.3636 239.036 53.4545 239.627 53.4545C240.07 53.4545 240.434 53.4318 240.718 53.3864C241.002 53.3295 241.229 53.2841 241.4 53.25L242.218 56.8636C241.945 56.9659 241.565 57.0682 241.076 57.1705C240.587 57.2841 239.968 57.3409 239.218 57.3409C238.082 57.3409 236.968 57.0966 235.877 56.608C234.798 56.1193 233.9 55.375 233.184 54.375C232.479 53.375 232.127 52.1136 232.127 50.5909V24.5455ZM286.639 22.0909V57H282.548L263.525 29.5909H263.185V57H258.957V22.0909H263.048L282.139 49.5682H282.48V22.0909H286.639ZM300.817 57.6136C299.158 57.6136 297.652 57.3011 296.3 56.6761C294.948 56.0398 293.874 55.125 293.078 53.9318C292.283 52.7273 291.885 51.2727 291.885 49.5682C291.885 48.0682 292.181 46.8523 292.772 45.9205C293.362 44.9773 294.152 44.2386 295.141 43.7045C296.129 43.1705 297.22 42.7727 298.414 42.5114C299.618 42.2386 300.828 42.0227 302.044 41.8636C303.635 41.6591 304.925 41.5057 305.914 41.4034C306.914 41.2898 307.641 41.1023 308.095 40.8409C308.561 40.5795 308.794 40.125 308.794 39.4773V39.3409C308.794 37.6591 308.334 36.3523 307.414 35.4205C306.504 34.4886 305.124 34.0227 303.272 34.0227C301.351 34.0227 299.845 34.4432 298.754 35.2841C297.664 36.125 296.897 37.0227 296.453 37.9773L292.635 36.6136C293.317 35.0227 294.226 33.7841 295.362 32.8977C296.51 32 297.76 31.375 299.112 31.0227C300.476 30.6591 301.817 30.4773 303.135 30.4773C303.976 30.4773 304.942 30.5795 306.033 30.7841C307.135 30.9773 308.198 31.3807 309.22 31.9943C310.254 32.608 311.112 33.5341 311.794 34.7727C312.476 36.0114 312.817 37.6705 312.817 39.75V57H308.794V53.4545H308.59C308.317 54.0227 307.862 54.6307 307.226 55.2784C306.59 55.9261 305.743 56.4773 304.686 56.9318C303.629 57.3864 302.34 57.6136 300.817 57.6136ZM301.431 54C303.022 54 304.362 53.6875 305.453 53.0625C306.556 52.4375 307.385 51.6307 307.942 50.642C308.51 49.6534 308.794 48.6136 308.794 47.5227V43.8409C308.624 44.0455 308.249 44.233 307.669 44.4034C307.101 44.5625 306.442 44.7045 305.692 44.8295C304.953 44.9432 304.232 45.0455 303.527 45.1364C302.834 45.2159 302.272 45.2841 301.84 45.3409C300.794 45.4773 299.817 45.6989 298.908 46.0057C298.01 46.3011 297.283 46.75 296.726 47.3523C296.181 47.9432 295.908 48.75 295.908 49.7727C295.908 51.1705 296.425 52.2273 297.459 52.9432C298.504 53.6477 299.828 54 301.431 54ZM318.719 57V30.8182H322.606V34.9091H322.947C323.492 33.5114 324.373 32.4261 325.589 31.6534C326.805 30.8693 328.265 30.4773 329.969 30.4773C331.697 30.4773 333.134 30.8693 334.282 31.6534C335.441 32.4261 336.344 33.5114 336.992 34.9091H337.265C337.935 33.5568 338.941 32.483 340.282 31.6875C341.623 30.8807 343.231 30.4773 345.106 30.4773C347.447 30.4773 349.361 31.2102 350.85 32.6761C352.339 34.1307 353.083 36.3977 353.083 39.4773V57H349.06V39.4773C349.06 37.5455 348.532 36.1648 347.475 35.3352C346.418 34.5057 345.174 34.0909 343.742 34.0909C341.901 34.0909 340.475 34.6477 339.464 35.7614C338.452 36.8636 337.947 38.2614 337.947 39.9545V57H333.856V39.0682C333.856 37.5795 333.373 36.3807 332.407 35.4716C331.441 34.5511 330.197 34.0909 328.674 34.0909C327.628 34.0909 326.651 34.3693 325.742 34.9261C324.844 35.483 324.117 36.2557 323.56 37.2443C323.015 38.2216 322.742 39.3523 322.742 40.6364V57H318.719ZM369.975 57.5455C367.453 57.5455 365.276 56.9886 363.447 55.875C361.629 54.75 360.225 53.1818 359.237 51.1705C358.259 49.1477 357.771 46.7955 357.771 44.1136C357.771 41.4318 358.259 39.0682 359.237 37.0227C360.225 34.9659 361.6 33.3636 363.362 32.2159C365.134 31.0568 367.203 30.4773 369.566 30.4773C370.93 30.4773 372.276 30.7045 373.606 31.1591C374.936 31.6136 376.146 32.3523 377.237 33.375C378.328 34.3864 379.197 35.7273 379.845 37.3977C380.492 39.0682 380.816 41.125 380.816 43.5682V45.2727H360.634V41.7955H376.725C376.725 40.3182 376.43 39 375.839 37.8409C375.259 36.6818 374.43 35.767 373.35 35.0966C372.282 34.4261 371.021 34.0909 369.566 34.0909C367.964 34.0909 366.578 34.4886 365.407 35.2841C364.248 36.0682 363.356 37.0909 362.731 38.3523C362.106 39.6136 361.794 40.9659 361.794 42.4091V44.7273C361.794 46.7045 362.134 48.3807 362.816 49.7557C363.509 51.1193 364.47 52.1591 365.697 52.875C366.924 53.5795 368.35 53.9318 369.975 53.9318C371.032 53.9318 371.987 53.7841 372.839 53.4886C373.703 53.1818 374.447 52.7273 375.072 52.125C375.697 51.5114 376.18 50.75 376.521 49.8409L380.407 50.9318C379.998 52.25 379.311 53.4091 378.345 54.4091C377.379 55.3977 376.186 56.1705 374.765 56.7273C373.345 57.2727 371.748 57.5455 369.975 57.5455Z" fill="#FF6600"/>
<circle cx="48" cy="40" r="32" fill="#FF6600"/>
</svg>
